<?xml version="1.0" encoding="utf-8"?>
<!-- Generator: Adobe Illustrator 16.0.0, SVG Export Plug-In . SVG Version: 6.00 Build 0)  -->
<!DOCTYPE svg PUBLIC "-//W3C//DTD SVG 1.1//EN" "http://www.w3.org/Graphics/SVG/1.1/DTD/svg11.dtd">
<svg version="1.1" id="Layer_1" xmlns="http://www.w3.org/2000/svg" xmlns:xlink="http://www.w3.org/1999/xlink" x="0px" y="0px"
	 width="101px" height="58px" viewBox="0 0 101 58" enable-background="new 0 0 101 58" xml:space="preserve">
<path fill="#FFFFFF" d="M94.637,6.734c0-1.151,0.588-1.675,1.234-1.714v0.504c-0.432,0.052-0.777,0.418-0.777,1.21
	c0,0.981,0.443,1.151,0.732,1.151c1.008,0,0.482-2.977,1.994-2.977c0.805,0,1.25,0.647,1.25,1.714c0,1.282-0.57,1.805-1.348,1.87
	v-0.51c0.627-0.033,0.883-0.641,0.883-1.394c0-0.732-0.256-1.189-0.766-1.189c-1.059,0-0.521,2.962-2.008,2.962
	C95.127,8.362,94.637,7.819,94.637,6.734z M94.688,11.138v3.513h0.471V13.14h3.859v-0.491h-3.859v-1.511H94.688z M43.271,14.992
	v28.016c0,3.775-3.071,6.846-6.846,6.846h-0.422c-3.775,0-6.846-3.07-6.846-6.846V14.992c0-3.775,3.071-6.847,6.846-6.847h0.422
	C40.2,8.146,43.271,11.217,43.271,14.992z M40.111,14.992c0-2.033-1.653-3.687-3.686-3.687h-0.422c-2.033,0-3.686,1.653-3.686,3.687
	v28.016c0,2.033,1.653,3.687,3.686,3.687h0.422c2.033,0,3.686-1.653,3.686-3.687V14.992z M82.793,8.146
	c-0.873,0-1.58,0.708-1.58,1.581v38.548c0,0.872,0.707,1.579,1.58,1.579s1.58-0.707,1.58-1.579V9.727
	C84.373,8.854,83.666,8.146,82.793,8.146z M25.09,8.174c-0.745-0.143-1.485,0.265-1.765,0.97l-6.17,15.568L10.986,9.144
	c-0.279-0.705-1.021-1.111-1.765-0.97C8.476,8.316,7.937,8.968,7.937,9.727v38.548c0,0.872,0.708,1.579,1.58,1.579
	c0.873,0,1.58-0.707,1.58-1.579V18.001l4.59,11.581c0.239,0.602,0.821,0.998,1.469,0.998s1.23-0.396,1.468-0.998L23.214,18v30.274
	c0,0.872,0.708,1.579,1.58,1.579s1.58-0.707,1.58-1.579V9.727C26.374,8.968,25.835,8.316,25.09,8.174z M53.346,8.146h-0.422
	c-3.774,0-6.846,3.071-6.846,6.847v28.016c0,3.775,3.071,6.846,6.846,6.846h0.422c3.775,0,6.846-3.07,6.846-6.846v-7.991
	c0-0.873-0.707-1.58-1.58-1.58s-1.58,0.707-1.58,1.58v7.991c0,2.033-1.654,3.687-3.686,3.687h-0.422
	c-2.032,0-3.686-1.653-3.686-3.687V14.992c0-2.033,1.654-3.687,3.686-3.687h0.422c2.031,0,3.686,1.653,3.686,3.687v7.596
	c0,0.873,0.707,1.58,1.58,1.58s1.58-0.707,1.58-1.58v-7.596C60.191,11.217,57.121,8.146,53.346,8.146z M76.895,8.146
	c-0.871,0-1.58,0.708-1.58,1.581v16.114c-3.479-2.537-7.828-3.944-9.27-4.365V9.727c0-0.873-0.707-1.581-1.578-1.581
	c-0.873,0-1.58,0.708-1.58,1.581v38.548c0,0.872,0.707,1.579,1.58,1.579c0.871,0,1.578-0.707,1.578-1.579V24.786
	c2.115,0.695,6.371,2.33,8.961,4.921c0.096,0.095,0.199,0.173,0.309,0.238v18.329c0,0.872,0.709,1.579,1.58,1.579
	c0.873,0,1.58-0.707,1.58-1.579V9.727C78.475,8.854,77.768,8.146,76.895,8.146z M97.584,30.586h-2.896v0.49h2.879
	c0.443,0,1.025,0.11,1.025,0.896c0,0.614-0.391,0.909-0.732,0.962v0.51c0.59-0.06,1.211-0.51,1.211-1.445
	C99.07,30.952,98.344,30.586,97.584,30.586z M94.688,24.004v3.185h4.33v-3.185h-0.471v2.694h-1.459v-2.407h-0.479v2.407h-1.451
	v-2.694H94.688z M97.723,17.206v0.517c0.529,0.223,0.869,0.693,0.869,1.406c0,1.053-0.766,1.642-1.74,1.642
	s-1.738-0.589-1.738-1.642c0-0.713,0.34-1.184,0.869-1.406v-0.517c-0.791,0.274-1.346,0.981-1.346,1.962
	c0,1.302,0.986,2.094,2.215,2.094c1.23,0,2.219-0.792,2.219-2.094C99.07,18.188,98.514,17.48,97.723,17.206z M99.07,38.366
	c0,1.314-0.988,2.197-2.219,2.197c-1.229,0-2.215-0.883-2.215-2.197c0-1.315,0.986-2.198,2.215-2.198
	C98.082,36.168,99.07,37.051,99.07,38.366z M98.592,38.366c0-1.053-0.766-1.708-1.74-1.708s-1.738,0.655-1.738,1.708
	s0.764,1.707,1.738,1.707S98.592,39.419,98.592,38.366z M97.475,52.942h1.543v0.49h-4.33v-1.949c0-0.922,0.543-1.491,1.393-1.491
	c0.857,0,1.395,0.569,1.395,1.491V52.942z M97.016,51.517c0-0.68-0.354-1.033-0.936-1.033c-0.574,0-0.928,0.354-0.928,1.033v1.426
	h1.863V51.517z M90.381,6.698v44.604c0,2.072-1.646,3.758-3.668,3.758H5.597c-2.022,0-3.667-1.686-3.667-3.758V6.698
	c0-2.072,1.645-3.758,3.667-3.758h81.116C88.734,2.94,90.381,4.626,90.381,6.698z M87.371,6.698c0-0.412-0.295-0.748-0.658-0.748
	H5.597c-0.363,0-0.658,0.336-0.658,0.748v44.604c0,0.412,0.295,0.748,0.658,0.748h81.116c0.363,0,0.658-0.336,0.658-0.748V6.698z
	 M97.271,44.501l1.746-1.139v0.582l-1.662,1.047v1.505h1.662v0.49h-4.33v-2.073c0-0.89,0.531-1.459,1.354-1.459
	C96.879,43.454,97.16,44.017,97.271,44.501z M96.893,44.997c0-0.464-0.178-1.053-0.852-1.053c-0.549,0-0.889,0.412-0.889,1.027
	v1.524h1.74V44.997z"/>
</svg>
